<mxfile host="app.diagrams.net" agent="Mozilla/5.0 (Macintosh; Intel Mac OS X 10_15_7) AppleWebKit/537.36 (KHTML, like Gecko) Chrome/138.0.0.0 Safari/537.36" version="28.2.3">
  <diagram name="Page-1" id="nX2IueKc0Eig8VtknKXW">
    <mxGraphModel dx="6432" dy="4504" grid="1" gridSize="10" guides="1" tooltips="1" connect="1" arrows="1" fold="1" page="1" pageScale="1" pageWidth="850" pageHeight="1100" math="0" shadow="0">
      <root>
        <mxCell id="0" />
        <mxCell id="1" parent="0" />
        <mxCell id="-6swrkzqvTbWPOndeZrE-77" value="" style="sketch=0;outlineConnect=0;fontColor=#232F3E;gradientColor=none;fillColor=#232F3D;strokeColor=none;dashed=0;verticalLabelPosition=bottom;verticalAlign=top;align=center;html=1;fontSize=12;fontStyle=0;aspect=fixed;pointerEvents=1;shape=mxgraph.aws4.user;" vertex="1" parent="1">
          <mxGeometry x="-3190" y="-2120" width="120" height="120" as="geometry" />
        </mxCell>
        <mxCell id="-6swrkzqvTbWPOndeZrE-82" style="edgeStyle=orthogonalEdgeStyle;rounded=0;orthogonalLoop=1;jettySize=auto;html=1;" edge="1" parent="1" source="-6swrkzqvTbWPOndeZrE-78" target="-6swrkzqvTbWPOndeZrE-80">
          <mxGeometry relative="1" as="geometry" />
        </mxCell>
        <mxCell id="-6swrkzqvTbWPOndeZrE-78" value="" style="image;aspect=fixed;html=1;points=[];align=center;fontSize=12;image=img/lib/azure2/networking/Front_Doors.svg;" vertex="1" parent="1">
          <mxGeometry x="-2950" y="-2126.4700000000003" width="150.67" height="132.94" as="geometry" />
        </mxCell>
        <mxCell id="-6swrkzqvTbWPOndeZrE-79" value="" style="endArrow=classic;html=1;rounded=0;entryX=0.026;entryY=0.529;entryDx=0;entryDy=0;entryPerimeter=0;" edge="1" parent="1" source="-6swrkzqvTbWPOndeZrE-77" target="-6swrkzqvTbWPOndeZrE-78">
          <mxGeometry width="50" height="50" relative="1" as="geometry">
            <mxPoint x="-1930" y="-1080" as="sourcePoint" />
            <mxPoint x="-1880" y="-1130" as="targetPoint" />
            <Array as="points" />
          </mxGeometry>
        </mxCell>
        <mxCell id="-6swrkzqvTbWPOndeZrE-80" value="" style="image;aspect=fixed;html=1;points=[];align=center;fontSize=12;image=img/lib/azure2/networking/Application_Gateway_Containers.svg;" vertex="1" parent="1">
          <mxGeometry x="-2205.8" y="-2120" width="131.6" height="124.32" as="geometry" />
        </mxCell>
        <mxCell id="-6swrkzqvTbWPOndeZrE-83" value="&lt;font style=&quot;font-size: 21px;&quot;&gt;Application Gateway&lt;/font&gt;" style="text;html=1;align=center;verticalAlign=middle;resizable=0;points=[];autosize=1;strokeColor=none;fillColor=none;" vertex="1" parent="1">
          <mxGeometry x="-2600" y="-1980" width="210" height="40" as="geometry" />
        </mxCell>
        <mxCell id="-6swrkzqvTbWPOndeZrE-84" value="&lt;font style=&quot;font-size: 21px;&quot;&gt;Front Door&lt;/font&gt;" style="text;html=1;align=center;verticalAlign=middle;resizable=0;points=[];autosize=1;strokeColor=none;fillColor=none;" vertex="1" parent="1">
          <mxGeometry x="-2934.67" y="-1960" width="120" height="40" as="geometry" />
        </mxCell>
        <mxCell id="-6swrkzqvTbWPOndeZrE-85" value="&lt;font style=&quot;font-size: 21px;&quot;&gt;User&lt;/font&gt;" style="text;html=1;align=center;verticalAlign=middle;resizable=0;points=[];autosize=1;strokeColor=none;fillColor=none;" vertex="1" parent="1">
          <mxGeometry x="-3165" y="-1960" width="70" height="40" as="geometry" />
        </mxCell>
        <mxCell id="-6swrkzqvTbWPOndeZrE-86" value="&lt;font style=&quot;font-size: 21px;&quot;&gt;Primary Region -&amp;nbsp;&lt;/font&gt;&lt;font style=&quot;font-size: 21px;&quot;&gt;Resource Group&lt;/font&gt;" style="swimlane;whiteSpace=wrap;html=1;" vertex="1" parent="1">
          <mxGeometry x="-2560" y="-1910" width="1290" height="750" as="geometry" />
        </mxCell>
        <mxCell id="-6swrkzqvTbWPOndeZrE-88" value="Virtual Network (VNet) - Subnet Application" style="swimlane;whiteSpace=wrap;html=1;" vertex="1" parent="-6swrkzqvTbWPOndeZrE-86">
          <mxGeometry x="55" y="50" width="740" height="210" as="geometry" />
        </mxCell>
        <mxCell id="-6swrkzqvTbWPOndeZrE-89" value="Availability Zone 1" style="fillColor=none;strokeColor=#147EBA;dashed=1;verticalAlign=top;fontStyle=0;fontColor=#147EBA;whiteSpace=wrap;html=1;" vertex="1" parent="-6swrkzqvTbWPOndeZrE-88">
          <mxGeometry x="20" y="50" width="210" height="100" as="geometry" />
        </mxCell>
        <mxCell id="-6swrkzqvTbWPOndeZrE-93" value="VM Scale Set - Linux Instance" style="image;sketch=0;aspect=fixed;html=1;points=[];align=center;fontSize=12;image=img/lib/mscae/VM_Scale_Set.svg;" vertex="1" parent="-6swrkzqvTbWPOndeZrE-88">
          <mxGeometry x="100" y="75" width="50" height="50" as="geometry" />
        </mxCell>
        <mxCell id="-6swrkzqvTbWPOndeZrE-94" value="Availability Zone 2" style="fillColor=none;strokeColor=#147EBA;dashed=1;verticalAlign=top;fontStyle=0;fontColor=#147EBA;whiteSpace=wrap;html=1;" vertex="1" parent="-6swrkzqvTbWPOndeZrE-88">
          <mxGeometry x="250" y="50" width="210" height="100" as="geometry" />
        </mxCell>
        <mxCell id="-6swrkzqvTbWPOndeZrE-95" value="VM Scale Set - Linux Instance" style="image;sketch=0;aspect=fixed;html=1;points=[];align=center;fontSize=12;image=img/lib/mscae/VM_Scale_Set.svg;" vertex="1" parent="-6swrkzqvTbWPOndeZrE-88">
          <mxGeometry x="330" y="75" width="50" height="50" as="geometry" />
        </mxCell>
        <mxCell id="-6swrkzqvTbWPOndeZrE-96" value="Availability Zone 3" style="fillColor=none;strokeColor=#147EBA;dashed=1;verticalAlign=top;fontStyle=0;fontColor=#147EBA;whiteSpace=wrap;html=1;" vertex="1" parent="-6swrkzqvTbWPOndeZrE-88">
          <mxGeometry x="480" y="50" width="210" height="100" as="geometry" />
        </mxCell>
        <mxCell id="-6swrkzqvTbWPOndeZrE-97" value="VM Scale Set - Linux Instance" style="image;sketch=0;aspect=fixed;html=1;points=[];align=center;fontSize=12;image=img/lib/mscae/VM_Scale_Set.svg;" vertex="1" parent="-6swrkzqvTbWPOndeZrE-88">
          <mxGeometry x="560" y="75" width="50" height="50" as="geometry" />
        </mxCell>
        <mxCell id="-6swrkzqvTbWPOndeZrE-102" value="Auto Scaling: min=3, max=6 VMs (baseado em CPU/MemÃ³ria)" style="text;html=1;align=center;verticalAlign=middle;whiteSpace=wrap;rounded=0;" vertex="1" parent="-6swrkzqvTbWPOndeZrE-88">
          <mxGeometry x="195" y="170" width="375" height="30" as="geometry" />
        </mxCell>
        <mxCell id="-6swrkzqvTbWPOndeZrE-129" style="edgeStyle=orthogonalEdgeStyle;rounded=0;orthogonalLoop=1;jettySize=auto;html=1;exitX=1;exitY=0.14;exitDx=0;exitDy=0;exitPerimeter=0;dashed=1;endArrow=none;endFill=0;" edge="1" parent="-6swrkzqvTbWPOndeZrE-86" source="-6swrkzqvTbWPOndeZrE-103" target="-6swrkzqvTbWPOndeZrE-122">
          <mxGeometry relative="1" as="geometry" />
        </mxCell>
        <mxCell id="-6swrkzqvTbWPOndeZrE-103" value="" style="verticalLabelPosition=bottom;html=1;verticalAlign=top;align=center;strokeColor=none;fillColor=#00BEF2;shape=mxgraph.azure.sql_database;" vertex="1" parent="-6swrkzqvTbWPOndeZrE-86">
          <mxGeometry x="240" y="360" width="67.5" height="90" as="geometry" />
        </mxCell>
        <mxCell id="-6swrkzqvTbWPOndeZrE-104" value="Azure SQL Database (Primary)" style="text;html=1;align=center;verticalAlign=middle;resizable=0;points=[];autosize=1;strokeColor=none;fillColor=none;" vertex="1" parent="-6swrkzqvTbWPOndeZrE-86">
          <mxGeometry x="317.5" y="420" width="190" height="30" as="geometry" />
        </mxCell>
        <mxCell id="-6swrkzqvTbWPOndeZrE-106" style="edgeStyle=orthogonalEdgeStyle;rounded=0;orthogonalLoop=1;jettySize=auto;html=1;exitX=0.5;exitY=1;exitDx=0;exitDy=0;entryX=-0.033;entryY=0.617;entryDx=0;entryDy=0;entryPerimeter=0;" edge="1" parent="-6swrkzqvTbWPOndeZrE-86" source="-6swrkzqvTbWPOndeZrE-89" target="-6swrkzqvTbWPOndeZrE-103">
          <mxGeometry relative="1" as="geometry">
            <Array as="points">
              <mxPoint x="180" y="416" />
            </Array>
          </mxGeometry>
        </mxCell>
        <mxCell id="-6swrkzqvTbWPOndeZrE-107" style="edgeStyle=orthogonalEdgeStyle;rounded=0;orthogonalLoop=1;jettySize=auto;html=1;exitX=0;exitY=0.5;exitDx=0;exitDy=0;entryX=1;entryY=0.5;entryDx=0;entryDy=0;entryPerimeter=0;" edge="1" parent="-6swrkzqvTbWPOndeZrE-86" source="-6swrkzqvTbWPOndeZrE-96" target="-6swrkzqvTbWPOndeZrE-103">
          <mxGeometry relative="1" as="geometry">
            <Array as="points">
              <mxPoint x="530" y="150" />
              <mxPoint x="530" y="405" />
            </Array>
          </mxGeometry>
        </mxCell>
        <mxCell id="-6swrkzqvTbWPOndeZrE-108" style="edgeStyle=orthogonalEdgeStyle;rounded=0;orthogonalLoop=1;jettySize=auto;html=1;exitX=0.5;exitY=1;exitDx=0;exitDy=0;entryX=0.5;entryY=0;entryDx=0;entryDy=0;entryPerimeter=0;" edge="1" parent="-6swrkzqvTbWPOndeZrE-86" source="-6swrkzqvTbWPOndeZrE-94" target="-6swrkzqvTbWPOndeZrE-103">
          <mxGeometry relative="1" as="geometry" />
        </mxCell>
        <mxCell id="-6swrkzqvTbWPOndeZrE-109" value="" style="verticalLabelPosition=bottom;html=1;verticalAlign=top;align=center;strokeColor=none;fillColor=#00BEF2;shape=mxgraph.azure.storage_blob;" vertex="1" parent="-6swrkzqvTbWPOndeZrE-86">
          <mxGeometry x="690" y="410" width="110" height="90" as="geometry" />
        </mxCell>
        <mxCell id="-6swrkzqvTbWPOndeZrE-110" value="Azure Blob Storage (GRS)" style="text;html=1;align=center;verticalAlign=middle;resizable=0;points=[];autosize=1;strokeColor=none;fillColor=none;" vertex="1" parent="-6swrkzqvTbWPOndeZrE-86">
          <mxGeometry x="665" y="510" width="160" height="30" as="geometry" />
        </mxCell>
        <mxCell id="-6swrkzqvTbWPOndeZrE-111" style="edgeStyle=orthogonalEdgeStyle;rounded=0;orthogonalLoop=1;jettySize=auto;html=1;exitX=0;exitY=1;exitDx=0;exitDy=0;entryX=0;entryY=0.5;entryDx=0;entryDy=0;entryPerimeter=0;" edge="1" parent="-6swrkzqvTbWPOndeZrE-86" source="-6swrkzqvTbWPOndeZrE-89" target="-6swrkzqvTbWPOndeZrE-109">
          <mxGeometry relative="1" as="geometry">
            <Array as="points">
              <mxPoint x="75" y="480" />
              <mxPoint x="690" y="480" />
            </Array>
          </mxGeometry>
        </mxCell>
        <mxCell id="-6swrkzqvTbWPOndeZrE-113" style="edgeStyle=orthogonalEdgeStyle;rounded=0;orthogonalLoop=1;jettySize=auto;html=1;exitX=0.75;exitY=1;exitDx=0;exitDy=0;entryX=0.25;entryY=0;entryDx=0;entryDy=0;entryPerimeter=0;" edge="1" parent="-6swrkzqvTbWPOndeZrE-86" source="-6swrkzqvTbWPOndeZrE-94" target="-6swrkzqvTbWPOndeZrE-109">
          <mxGeometry relative="1" as="geometry" />
        </mxCell>
        <mxCell id="-6swrkzqvTbWPOndeZrE-114" style="edgeStyle=orthogonalEdgeStyle;rounded=0;orthogonalLoop=1;jettySize=auto;html=1;exitX=1;exitY=1;exitDx=0;exitDy=0;entryX=0.75;entryY=0;entryDx=0;entryDy=0;entryPerimeter=0;" edge="1" parent="-6swrkzqvTbWPOndeZrE-86" source="-6swrkzqvTbWPOndeZrE-96" target="-6swrkzqvTbWPOndeZrE-109">
          <mxGeometry relative="1" as="geometry" />
        </mxCell>
        <mxCell id="-6swrkzqvTbWPOndeZrE-115" value="" style="html=1;verticalLabelPosition=bottom;align=center;labelBackgroundColor=#ffffff;verticalAlign=top;strokeWidth=2;strokeColor=#0080F0;shadow=0;dashed=0;shape=mxgraph.ios7.icons.monitor;" vertex="1" parent="-6swrkzqvTbWPOndeZrE-86">
          <mxGeometry x="352.5" y="520" width="120" height="90" as="geometry" />
        </mxCell>
        <mxCell id="-6swrkzqvTbWPOndeZrE-116" value="Azure Monitor + Application Insights + Log Analytics" style="text;html=1;align=center;verticalAlign=middle;resizable=0;points=[];autosize=1;strokeColor=none;fillColor=none;" vertex="1" parent="-6swrkzqvTbWPOndeZrE-86">
          <mxGeometry x="262.5" y="640" width="300" height="30" as="geometry" />
        </mxCell>
        <mxCell id="-6swrkzqvTbWPOndeZrE-117" value="" style="endArrow=none;dashed=1;html=1;rounded=0;entryX=0;entryY=0.5;entryDx=0;entryDy=0;exitX=0.063;exitY=0.333;exitDx=0;exitDy=0;exitPerimeter=0;edgeStyle=orthogonalEdgeStyle;" edge="1" parent="-6swrkzqvTbWPOndeZrE-86" source="-6swrkzqvTbWPOndeZrE-115" target="-6swrkzqvTbWPOndeZrE-89">
          <mxGeometry width="50" height="50" relative="1" as="geometry">
            <mxPoint x="20" y="390" as="sourcePoint" />
            <mxPoint x="70" y="340" as="targetPoint" />
            <Array as="points">
              <mxPoint x="30" y="550" />
              <mxPoint x="30" y="150" />
            </Array>
          </mxGeometry>
        </mxCell>
        <mxCell id="-6swrkzqvTbWPOndeZrE-118" value="" style="endArrow=none;dashed=1;html=1;rounded=0;entryX=0.5;entryY=1;entryDx=0;entryDy=0;entryPerimeter=0;exitX=0.028;exitY=0.114;exitDx=0;exitDy=0;exitPerimeter=0;" edge="1" parent="-6swrkzqvTbWPOndeZrE-86" source="-6swrkzqvTbWPOndeZrE-115" target="-6swrkzqvTbWPOndeZrE-103">
          <mxGeometry width="50" height="50" relative="1" as="geometry">
            <mxPoint x="20" y="390" as="sourcePoint" />
            <mxPoint x="70" y="340" as="targetPoint" />
          </mxGeometry>
        </mxCell>
        <mxCell id="-6swrkzqvTbWPOndeZrE-120" value="" style="endArrow=none;dashed=1;html=1;rounded=0;entryX=0.5;entryY=1;entryDx=0;entryDy=0;entryPerimeter=0;exitX=0.99;exitY=0.377;exitDx=0;exitDy=0;exitPerimeter=0;" edge="1" parent="-6swrkzqvTbWPOndeZrE-86" source="-6swrkzqvTbWPOndeZrE-115" target="-6swrkzqvTbWPOndeZrE-109">
          <mxGeometry width="50" height="50" relative="1" as="geometry">
            <mxPoint x="30" y="390" as="sourcePoint" />
            <mxPoint x="80" y="340" as="targetPoint" />
          </mxGeometry>
        </mxCell>
        <mxCell id="-6swrkzqvTbWPOndeZrE-122" value="" style="verticalLabelPosition=bottom;html=1;verticalAlign=top;align=center;strokeColor=none;fillColor=#00BEF2;shape=mxgraph.azure.azure_active_directory;" vertex="1" parent="-6swrkzqvTbWPOndeZrE-86">
          <mxGeometry x="1020" y="70" width="104.5" height="110" as="geometry" />
        </mxCell>
        <mxCell id="-6swrkzqvTbWPOndeZrE-124" value="IAM: Azure AD + Managed Identity + RBAC" style="text;html=1;align=center;verticalAlign=middle;resizable=0;points=[];autosize=1;strokeColor=none;fillColor=none;" vertex="1" parent="-6swrkzqvTbWPOndeZrE-86">
          <mxGeometry x="960" y="200" width="250" height="30" as="geometry" />
        </mxCell>
        <mxCell id="-6swrkzqvTbWPOndeZrE-126" value="" style="endArrow=none;dashed=1;html=1;rounded=0;entryX=1;entryY=0.5;entryDx=0;entryDy=0;exitX=0;exitY=0.58;exitDx=0;exitDy=0;exitPerimeter=0;" edge="1" parent="-6swrkzqvTbWPOndeZrE-86" source="-6swrkzqvTbWPOndeZrE-122" target="-6swrkzqvTbWPOndeZrE-96">
          <mxGeometry width="50" height="50" relative="1" as="geometry">
            <mxPoint x="450" y="390" as="sourcePoint" />
            <mxPoint x="500" y="340" as="targetPoint" />
          </mxGeometry>
        </mxCell>
        <mxCell id="-6swrkzqvTbWPOndeZrE-127" style="edgeStyle=orthogonalEdgeStyle;rounded=0;orthogonalLoop=1;jettySize=auto;html=1;exitX=1;exitY=0;exitDx=0;exitDy=0;entryX=0.25;entryY=0.29;entryDx=0;entryDy=0;entryPerimeter=0;dashed=1;endArrow=none;endFill=0;" edge="1" parent="-6swrkzqvTbWPOndeZrE-86" source="-6swrkzqvTbWPOndeZrE-94" target="-6swrkzqvTbWPOndeZrE-122">
          <mxGeometry relative="1" as="geometry" />
        </mxCell>
        <mxCell id="-6swrkzqvTbWPOndeZrE-128" style="edgeStyle=orthogonalEdgeStyle;rounded=0;orthogonalLoop=1;jettySize=auto;html=1;exitX=0.75;exitY=0;exitDx=0;exitDy=0;entryX=0.51;entryY=0;entryDx=0;entryDy=0;entryPerimeter=0;endArrow=none;endFill=0;dashed=1;" edge="1" parent="-6swrkzqvTbWPOndeZrE-86" source="-6swrkzqvTbWPOndeZrE-89" target="-6swrkzqvTbWPOndeZrE-122">
          <mxGeometry relative="1" as="geometry" />
        </mxCell>
        <mxCell id="-6swrkzqvTbWPOndeZrE-99" value="" style="endArrow=classic;html=1;rounded=0;entryX=0.41;entryY=0.013;entryDx=0;entryDy=0;entryPerimeter=0;" edge="1" parent="1" source="-6swrkzqvTbWPOndeZrE-80" target="-6swrkzqvTbWPOndeZrE-96">
          <mxGeometry width="50" height="50" relative="1" as="geometry">
            <mxPoint x="-2050" y="-1780" as="sourcePoint" />
            <mxPoint x="-2000" y="-1830" as="targetPoint" />
          </mxGeometry>
        </mxCell>
        <mxCell id="-6swrkzqvTbWPOndeZrE-100" value="" style="endArrow=classic;html=1;rounded=0;exitX=-0.002;exitY=0.832;exitDx=0;exitDy=0;exitPerimeter=0;entryX=0.322;entryY=-0.016;entryDx=0;entryDy=0;entryPerimeter=0;" edge="1" parent="1" source="-6swrkzqvTbWPOndeZrE-80" target="-6swrkzqvTbWPOndeZrE-89">
          <mxGeometry width="50" height="50" relative="1" as="geometry">
            <mxPoint x="-2050" y="-1780" as="sourcePoint" />
            <mxPoint x="-2000" y="-1830" as="targetPoint" />
          </mxGeometry>
        </mxCell>
        <mxCell id="-6swrkzqvTbWPOndeZrE-101" value="" style="endArrow=classic;html=1;rounded=0;exitX=0.422;exitY=0.958;exitDx=0;exitDy=0;exitPerimeter=0;entryX=0.5;entryY=0;entryDx=0;entryDy=0;" edge="1" parent="1" source="-6swrkzqvTbWPOndeZrE-80" target="-6swrkzqvTbWPOndeZrE-94">
          <mxGeometry width="50" height="50" relative="1" as="geometry">
            <mxPoint x="-2050" y="-1780" as="sourcePoint" />
            <mxPoint x="-2000" y="-1830" as="targetPoint" />
          </mxGeometry>
        </mxCell>
        <mxCell id="-6swrkzqvTbWPOndeZrE-121" value="" style="endArrow=none;dashed=1;html=1;dashPattern=1 3;strokeWidth=2;rounded=0;entryX=0.019;entryY=0.719;entryDx=0;entryDy=0;entryPerimeter=0;exitX=0.232;exitY=0.841;exitDx=0;exitDy=0;exitPerimeter=0;edgeStyle=orthogonalEdgeStyle;" edge="1" parent="1" source="-6swrkzqvTbWPOndeZrE-115" target="-6swrkzqvTbWPOndeZrE-80">
          <mxGeometry width="50" height="50" relative="1" as="geometry">
            <mxPoint x="-2530" y="-1520" as="sourcePoint" />
            <mxPoint x="-2480" y="-1570" as="targetPoint" />
            <Array as="points">
              <mxPoint x="-2690" y="-1314" />
              <mxPoint x="-2690" y="-2031" />
            </Array>
          </mxGeometry>
        </mxCell>
        <mxCell id="-6swrkzqvTbWPOndeZrE-130" value="&lt;font style=&quot;font-size: 21px;&quot;&gt;Secondary Region -&amp;nbsp;&lt;/font&gt;&lt;font style=&quot;font-size: 21px;&quot;&gt;Resource Group&lt;/font&gt;" style="swimlane;whiteSpace=wrap;html=1;" vertex="1" parent="1">
          <mxGeometry x="-1230" y="-1910" width="480" height="460" as="geometry" />
        </mxCell>
        <mxCell id="-6swrkzqvTbWPOndeZrE-131" value="" style="verticalLabelPosition=bottom;html=1;verticalAlign=top;align=center;strokeColor=none;fillColor=#00BEF2;shape=mxgraph.azure.sql_database;" vertex="1" parent="-6swrkzqvTbWPOndeZrE-130">
          <mxGeometry x="183.75" y="140" width="112.5" height="150" as="geometry" />
        </mxCell>
        <mxCell id="-6swrkzqvTbWPOndeZrE-132" value="Azure SQL Database (Secondary) - Failover Group" style="text;html=1;align=center;verticalAlign=middle;resizable=0;points=[];autosize=1;strokeColor=none;fillColor=none;" vertex="1" parent="-6swrkzqvTbWPOndeZrE-130">
          <mxGeometry x="90" y="310" width="300" height="30" as="geometry" />
        </mxCell>
        <mxCell id="-6swrkzqvTbWPOndeZrE-134" value="Failover automÃ¡tico para regiÃ£o secundÃ¡ria" style="text;html=1;align=center;verticalAlign=middle;resizable=0;points=[];autosize=1;strokeColor=none;fillColor=none;" vertex="1" parent="-6swrkzqvTbWPOndeZrE-130">
          <mxGeometry x="115" y="360" width="250" height="30" as="geometry" />
        </mxCell>
        <mxCell id="-6swrkzqvTbWPOndeZrE-133" style="edgeStyle=orthogonalEdgeStyle;rounded=0;orthogonalLoop=1;jettySize=auto;html=1;exitX=0;exitY=0.5;exitDx=0;exitDy=0;exitPerimeter=0;entryX=0;entryY=0.86;entryDx=0;entryDy=0;entryPerimeter=0;startArrow=classic;startFill=1;dashed=1;" edge="1" parent="1" source="-6swrkzqvTbWPOndeZrE-131" target="-6swrkzqvTbWPOndeZrE-103">
          <mxGeometry relative="1" as="geometry">
            <Array as="points">
              <mxPoint x="-1180" y="-1695" />
              <mxPoint x="-1180" y="-1180" />
              <mxPoint x="-2330" y="-1180" />
              <mxPoint x="-2330" y="-1473" />
            </Array>
          </mxGeometry>
        </mxCell>
      </root>
    </mxGraphModel>
  </diagram>
</mxfile>
